<?xml version="1.0"?>
<svg xmlns="http://www.w3.org/2000/svg" xmlns:xlink="http://www.w3.org/1999/xlink" version="1.1" id="Capa_1" x="0px" y="0px" width="512px" height="512px" viewBox="0 0 121.805 121.805" style="enable-background:new 0 0 121.805 121.805;" xml:space="preserve" class=""><g transform="matrix(0.895338, 0, 0, 0.895338, 6.37416, 6.37416)"><g>
	<g>
		<path d="M121.805,109.623V21.926c0-2.692-2.181-4.873-4.871-4.873H92.572c-2.691,0-4.871,2.181-4.871,4.873v87.697    c0,2.693,2.18,4.873,4.871,4.873h24.361C119.624,114.496,121.805,112.316,121.805,109.623z" data-original="#000000" class="active-path" data-old_color="#CE7E21" fill="#ED7745"/>
		<path d="M46.287,114.496h26.797c2.691,0,4.872-2.18,4.872-4.873V12.181c0-2.692-2.181-4.872-4.872-4.872H46.287    c-2.692,0-4.873,2.18-4.873,4.872v97.442C41.414,112.316,43.594,114.496,46.287,114.496z" data-original="#000000" class="active-path" data-old_color="#CE7E21" fill="#ED7745"/>
		<path d="M4.872,46.286C2.18,46.286,0,48.466,0,51.158v58.465c0,2.693,2.18,4.873,4.872,4.873h24.361    c2.692,0,4.872-2.18,4.872-4.873V51.158c0-2.692-2.18-4.872-4.872-4.872H4.872z" data-original="#000000" class="active-path" data-old_color="#CE7E21" fill="#ED7745"/>
	</g>
</g></g> </svg>
